<mxfile host="app.diagrams.net" modified="2023-03-25T07:01:31.752Z" agent="Mozilla/5.0 (Windows NT 10.0; Win64; x64) AppleWebKit/537.36 (KHTML, like Gecko) Chrome/111.0.0.0 Safari/537.36" etag="55Lxk2FTTeGQl1giWFLu" version="21.1.1" type="github">
  <diagram id="C5RBs43oDa-KdzZeNtuy" name="Page-1">
    <mxGraphModel dx="894" dy="456" grid="1" gridSize="10" guides="1" tooltips="1" connect="1" arrows="1" fold="1" page="1" pageScale="1" pageWidth="827" pageHeight="1169" math="0" shadow="0">
      <root>
        <mxCell id="WIyWlLk6GJQsqaUBKTNV-0" />
        <mxCell id="WIyWlLk6GJQsqaUBKTNV-1" parent="WIyWlLk6GJQsqaUBKTNV-0" />
        <mxCell id="OMXw2gWQCEcpu0v6LKVS-0" value="" style="rounded=1;whiteSpace=wrap;html=1;" vertex="1" parent="WIyWlLk6GJQsqaUBKTNV-1">
          <mxGeometry x="140" y="20" width="400" height="320" as="geometry" />
        </mxCell>
        <mxCell id="OMXw2gWQCEcpu0v6LKVS-8" style="edgeStyle=orthogonalEdgeStyle;rounded=0;orthogonalLoop=1;jettySize=auto;html=1;entryX=0;entryY=0.5;entryDx=0;entryDy=0;" edge="1" parent="WIyWlLk6GJQsqaUBKTNV-1" source="OMXw2gWQCEcpu0v6LKVS-1" target="OMXw2gWQCEcpu0v6LKVS-6">
          <mxGeometry relative="1" as="geometry" />
        </mxCell>
        <mxCell id="OMXw2gWQCEcpu0v6LKVS-13" style="edgeStyle=orthogonalEdgeStyle;rounded=0;orthogonalLoop=1;jettySize=auto;html=1;entryX=0;entryY=0.5;entryDx=0;entryDy=0;" edge="1" parent="WIyWlLk6GJQsqaUBKTNV-1" source="OMXw2gWQCEcpu0v6LKVS-1" target="OMXw2gWQCEcpu0v6LKVS-11">
          <mxGeometry relative="1" as="geometry" />
        </mxCell>
        <mxCell id="OMXw2gWQCEcpu0v6LKVS-1" value="Client" style="shape=umlActor;verticalLabelPosition=bottom;verticalAlign=top;html=1;outlineConnect=0;" vertex="1" parent="WIyWlLk6GJQsqaUBKTNV-1">
          <mxGeometry x="80" y="160" width="30" height="60" as="geometry" />
        </mxCell>
        <mxCell id="OMXw2gWQCEcpu0v6LKVS-27" style="edgeStyle=orthogonalEdgeStyle;rounded=0;orthogonalLoop=1;jettySize=auto;html=1;exitX=0.5;exitY=1;exitDx=0;exitDy=0;entryX=0;entryY=0.5;entryDx=0;entryDy=0;" edge="1" parent="WIyWlLk6GJQsqaUBKTNV-1" source="OMXw2gWQCEcpu0v6LKVS-6" target="OMXw2gWQCEcpu0v6LKVS-25">
          <mxGeometry relative="1" as="geometry">
            <Array as="points">
              <mxPoint x="305" y="120" />
            </Array>
          </mxGeometry>
        </mxCell>
        <mxCell id="OMXw2gWQCEcpu0v6LKVS-6" value="" style="ellipse;whiteSpace=wrap;html=1;" vertex="1" parent="WIyWlLk6GJQsqaUBKTNV-1">
          <mxGeometry x="260" y="80" width="90" height="30" as="geometry" />
        </mxCell>
        <mxCell id="OMXw2gWQCEcpu0v6LKVS-7" value="select&lt;br style=&quot;border-color: var(--border-color);&quot;&gt;destination" style="text;html=1;strokeColor=none;fillColor=none;align=center;verticalAlign=middle;whiteSpace=wrap;rounded=0;" vertex="1" parent="WIyWlLk6GJQsqaUBKTNV-1">
          <mxGeometry x="272.5" y="80" width="65" height="25" as="geometry" />
        </mxCell>
        <mxCell id="OMXw2gWQCEcpu0v6LKVS-11" value="" style="ellipse;whiteSpace=wrap;html=1;" vertex="1" parent="WIyWlLk6GJQsqaUBKTNV-1">
          <mxGeometry x="260" y="140" width="90" height="30" as="geometry" />
        </mxCell>
        <mxCell id="OMXw2gWQCEcpu0v6LKVS-28" style="edgeStyle=orthogonalEdgeStyle;rounded=0;orthogonalLoop=1;jettySize=auto;html=1;exitX=0.5;exitY=0;exitDx=0;exitDy=0;" edge="1" parent="WIyWlLk6GJQsqaUBKTNV-1" source="OMXw2gWQCEcpu0v6LKVS-12">
          <mxGeometry relative="1" as="geometry">
            <mxPoint x="410" y="120" as="targetPoint" />
            <Array as="points">
              <mxPoint x="305" y="120" />
            </Array>
          </mxGeometry>
        </mxCell>
        <mxCell id="OMXw2gWQCEcpu0v6LKVS-12" value="select&lt;br style=&quot;border-color: var(--border-color);&quot;&gt;payment" style="text;html=1;strokeColor=none;fillColor=none;align=center;verticalAlign=middle;whiteSpace=wrap;rounded=0;" vertex="1" parent="WIyWlLk6GJQsqaUBKTNV-1">
          <mxGeometry x="272.5" y="140" width="65" height="25" as="geometry" />
        </mxCell>
        <mxCell id="OMXw2gWQCEcpu0v6LKVS-22" style="edgeStyle=orthogonalEdgeStyle;rounded=0;orthogonalLoop=1;jettySize=auto;html=1;exitX=1;exitY=0.5;exitDx=0;exitDy=0;entryX=1;entryY=0.5;entryDx=0;entryDy=0;" edge="1" parent="WIyWlLk6GJQsqaUBKTNV-1" source="OMXw2gWQCEcpu0v6LKVS-14" target="OMXw2gWQCEcpu0v6LKVS-11">
          <mxGeometry relative="1" as="geometry" />
        </mxCell>
        <mxCell id="OMXw2gWQCEcpu0v6LKVS-14" value="" style="ellipse;whiteSpace=wrap;html=1;" vertex="1" parent="WIyWlLk6GJQsqaUBKTNV-1">
          <mxGeometry x="260" y="180" width="90" height="30" as="geometry" />
        </mxCell>
        <mxCell id="OMXw2gWQCEcpu0v6LKVS-15" value="credit card" style="text;html=1;strokeColor=none;fillColor=none;align=center;verticalAlign=middle;whiteSpace=wrap;rounded=0;" vertex="1" parent="WIyWlLk6GJQsqaUBKTNV-1">
          <mxGeometry x="272.5" y="182.5" width="65" height="25" as="geometry" />
        </mxCell>
        <mxCell id="OMXw2gWQCEcpu0v6LKVS-23" style="edgeStyle=orthogonalEdgeStyle;rounded=0;orthogonalLoop=1;jettySize=auto;html=1;exitX=1;exitY=0.5;exitDx=0;exitDy=0;entryX=1;entryY=0.5;entryDx=0;entryDy=0;" edge="1" parent="WIyWlLk6GJQsqaUBKTNV-1" source="OMXw2gWQCEcpu0v6LKVS-16" target="OMXw2gWQCEcpu0v6LKVS-11">
          <mxGeometry relative="1" as="geometry" />
        </mxCell>
        <mxCell id="OMXw2gWQCEcpu0v6LKVS-16" value="" style="ellipse;whiteSpace=wrap;html=1;" vertex="1" parent="WIyWlLk6GJQsqaUBKTNV-1">
          <mxGeometry x="260" y="230" width="90" height="30" as="geometry" />
        </mxCell>
        <mxCell id="OMXw2gWQCEcpu0v6LKVS-17" value="digital wallet" style="text;html=1;strokeColor=none;fillColor=none;align=center;verticalAlign=middle;whiteSpace=wrap;rounded=0;" vertex="1" parent="WIyWlLk6GJQsqaUBKTNV-1">
          <mxGeometry x="272.5" y="232.5" width="65" height="25" as="geometry" />
        </mxCell>
        <mxCell id="OMXw2gWQCEcpu0v6LKVS-19" value="" style="ellipse;whiteSpace=wrap;html=1;" vertex="1" parent="WIyWlLk6GJQsqaUBKTNV-1">
          <mxGeometry x="380" y="270" width="90" height="30" as="geometry" />
        </mxCell>
        <mxCell id="OMXw2gWQCEcpu0v6LKVS-24" style="edgeStyle=orthogonalEdgeStyle;rounded=0;orthogonalLoop=1;jettySize=auto;html=1;exitX=0;exitY=0.5;exitDx=0;exitDy=0;entryX=0.5;entryY=1;entryDx=0;entryDy=0;dashed=1;" edge="1" parent="WIyWlLk6GJQsqaUBKTNV-1" source="OMXw2gWQCEcpu0v6LKVS-19" target="OMXw2gWQCEcpu0v6LKVS-17">
          <mxGeometry relative="1" as="geometry" />
        </mxCell>
        <mxCell id="OMXw2gWQCEcpu0v6LKVS-21" value="QR Code" style="text;html=1;strokeColor=none;fillColor=none;align=center;verticalAlign=middle;whiteSpace=wrap;rounded=0;" vertex="1" parent="WIyWlLk6GJQsqaUBKTNV-1">
          <mxGeometry x="392.5" y="270" width="65" height="25" as="geometry" />
        </mxCell>
        <mxCell id="OMXw2gWQCEcpu0v6LKVS-25" value="" style="ellipse;whiteSpace=wrap;html=1;" vertex="1" parent="WIyWlLk6GJQsqaUBKTNV-1">
          <mxGeometry x="410" y="105" width="90" height="30" as="geometry" />
        </mxCell>
        <mxCell id="OMXw2gWQCEcpu0v6LKVS-26" value="Issue&lt;br&gt;Ticket" style="text;html=1;strokeColor=none;fillColor=none;align=center;verticalAlign=middle;whiteSpace=wrap;rounded=0;" vertex="1" parent="WIyWlLk6GJQsqaUBKTNV-1">
          <mxGeometry x="422.5" y="107.5" width="65" height="25" as="geometry" />
        </mxCell>
      </root>
    </mxGraphModel>
  </diagram>
</mxfile>
